<svg version="1.1" id="Layer_1" xmlns="http://www.w3.org/2000/svg" xmlns:xlink="http://www.w3.org/1999/xlink" x="0px" y="0px"
	 width="100%" viewBox="0 0 703 703" enable-background="new 0 0 703 703" xml:space="preserve">
<path fill="#FFFFFF" opacity="1.000000" stroke="none" 
	d="
M381.000000,704.000000 
	C254.000000,704.000000 127.500000,704.000000 1.000000,704.000000 
	C1.000000,469.666656 1.000000,235.333328 1.000000,1.000000 
	C235.333328,1.000000 469.666656,1.000000 704.000000,1.000000 
	C704.000000,235.333328 704.000000,469.666656 704.000000,704.000000 
	C596.500000,704.000000 489.000000,704.000000 381.000000,704.000000 
M121.286919,567.990662 
	C124.546928,567.640381 127.815514,567.355347 131.065414,566.928162 
	C143.369766,565.310669 155.653641,563.527954 167.973129,562.038147 
	C177.896545,560.838135 187.878845,560.124512 197.801743,558.920715 
	C213.045212,557.071533 228.247864,554.885986 243.491043,553.034119 
	C255.844406,551.533447 268.277740,550.637024 280.593048,548.890320 
	C297.039154,546.557678 313.458160,543.947815 329.792206,540.933472 
	C348.951538,537.397705 368.207306,534.079468 387.055542,529.241943 
	C408.987946,523.612854 430.714508,517.006165 452.182526,509.788910 
	C477.155334,501.393463 501.029755,490.216644 523.606567,476.628754 
	C550.588196,460.389801 575.016907,440.956268 595.702942,416.938446 
	C608.224548,402.400085 618.900269,386.698853 627.973938,369.883911 
	C637.248413,352.696991 644.655762,334.654510 649.487854,315.751160 
	C653.022400,301.923981 656.504028,287.854584 657.623169,273.704468 
	C658.694641,260.156860 657.415405,246.282364 655.859924,232.701538 
	C653.608582,213.046661 645.972290,195.191101 635.261780,178.550659 
	C625.358154,163.163925 612.931274,150.301910 598.618469,138.990067 
	C583.665283,127.172173 567.241089,118.092178 549.550903,111.280556 
	C534.697815,105.561378 519.506958,100.814339 503.629395,98.890785 
	C486.086823,96.765495 468.534393,93.725998 450.935516,93.328209 
	C431.517639,92.889305 412.031464,94.830093 392.596497,96.070389 
	C383.458160,96.653587 374.306030,97.635788 365.273987,99.126884 
	C351.167969,101.455650 337.159668,104.375793 323.107971,107.034821 
	C318.139221,107.975075 315.042603,110.835129 314.081635,115.843941 
	C312.366699,124.782852 310.743622,133.739639 308.986938,142.670227 
	C305.569336,160.044067 302.138641,177.415665 298.615509,194.768311 
	C294.803436,213.544205 290.798248,232.281097 287.027283,251.065094 
	C283.189545,270.181671 279.615936,289.351257 275.778198,308.467804 
	C271.271576,330.915924 266.574951,353.325775 262.016785,375.763611 
	C258.039917,395.339813 253.955490,414.897430 250.310059,434.535919 
	C249.069687,441.217865 247.172043,448.610474 248.815125,454.821075 
	C252.194550,467.594940 261.214691,476.381531 274.084167,480.548492 
	C280.710907,482.694092 286.786163,479.702240 287.940247,473.774628 
	C290.052521,462.925842 291.903259,452.026031 294.023438,441.178864 
	C297.513123,423.324860 301.142853,405.498291 304.690247,387.655518 
	C307.478088,373.633331 310.252777,359.608459 312.993439,345.576996 
	C316.139557,329.469696 319.202820,313.346130 322.372589,297.243530 
	C326.545166,276.046356 330.830872,254.871475 334.984436,233.670624 
	C338.452637,215.968048 341.738068,198.229614 345.217896,180.529358 
	C349.416077,159.175461 353.852203,137.867310 357.871033,116.480301 
	C358.465454,113.316978 359.957458,111.659721 362.534332,111.291969 
	C373.697235,109.698868 384.869690,107.939034 396.102692,107.141563 
	C405.730865,106.458023 415.466370,106.606201 425.117371,107.104118 
	C436.085297,107.669975 447.163879,108.221512 457.922150,110.234314 
	C475.282593,113.482338 492.142395,118.596588 508.494781,125.627281 
	C528.543274,134.247131 546.402466,146.016327 562.154358,160.850861 
	C574.846741,172.804031 584.950012,186.846573 592.414490,202.776718 
	C604.315491,228.174881 607.924500,254.683319 602.813782,282.122406 
	C599.082520,302.154449 591.899780,321.052032 581.717957,338.852570 
	C571.184509,357.267914 558.730774,374.234314 543.926392,389.302124 
	C535.442444,397.937042 525.809937,405.499817 516.327332,413.086273 
	C491.743561,432.754272 464.196472,447.657745 435.300415,459.555389 
	C411.104492,469.517853 386.139648,477.912109 360.984985,485.160431 
	C337.182800,492.019104 312.748047,496.755035 288.476379,501.879486 
	C277.169891,504.266602 265.599579,505.424042 254.133499,507.029175 
	C244.106552,508.432800 234.064514,509.734650 224.016785,510.981903 
	C217.676605,511.768921 211.301788,512.278687 204.963776,513.080994 
	C195.246017,514.311035 185.561478,515.811584 175.835266,516.964600 
	C165.908295,518.141357 155.930298,518.890686 146.006836,520.093079 
	C133.687561,521.585693 121.415871,523.471436 109.096306,524.961365 
	C99.173019,526.161438 89.196243,526.914612 79.266449,528.066467 
	C65.954231,529.610657 52.674240,531.433350 39.360729,532.965454 
	C32.971130,533.700867 30.112598,536.636597 29.977667,542.891113 
	C29.689671,556.240723 43.185844,570.517090 54.725639,573.793213 
	C59.051994,575.021484 64.035301,574.254700 68.688034,573.939270 
	C75.553383,573.473816 82.401001,572.683838 89.238045,571.878174 
	C99.623550,570.654358 109.993523,569.298645 121.286919,567.990662 
M185.676300,498.818237 
	C188.449997,485.128021 191.233963,471.439880 193.994827,457.747070 
	C197.557953,440.075500 201.113861,422.402466 204.652084,404.725891 
	C208.446060,385.771606 212.201157,366.809540 216.000381,347.856323 
	C219.894485,328.429932 223.857941,309.017395 227.723633,289.585358 
	C231.527496,270.464233 235.225616,251.322098 239.009354,232.196930 
	C242.539963,214.351181 246.352829,196.557404 249.594193,178.659760 
	C251.511169,168.074905 253.127090,157.370209 253.832581,146.650574 
	C254.474060,136.903595 244.201599,126.224274 232.873932,129.752106 
	C223.093002,132.798218 216.124222,138.976547 212.515091,147.581070 
	C208.428802,157.323181 206.370758,167.988785 204.082809,178.396179 
	C200.213074,195.998886 196.816162,213.706375 193.293915,231.384430 
	C189.484451,250.504059 185.800613,269.648712 181.984985,288.767059 
	C178.488815,306.284851 174.863586,323.776855 171.343521,341.289917 
	C167.534363,360.241302 163.798080,379.207367 159.998840,398.160767 
	C156.104797,417.587036 152.813766,437.164886 148.040558,456.373718 
	C144.655411,469.996552 146.577087,481.411865 156.699509,491.116455 
	C160.975189,495.215607 165.455460,499.192474 170.285675,502.596436 
	C175.071991,505.969421 182.205154,504.108215 185.676300,498.818237 
z"/>
<path fill="#0F62AC" opacity="1.000000" stroke="none" 
	d="
M120.828506,567.994751 
	C109.993523,569.298645 99.623550,570.654358 89.238045,571.878174 
	C82.401001,572.683838 75.553383,573.473816 68.688034,573.939270 
	C64.035301,574.254700 59.051994,575.021484 54.725639,573.793213 
	C43.185844,570.517090 29.689671,556.240723 29.977667,542.891113 
	C30.112598,536.636597 32.971130,533.700867 39.360729,532.965454 
	C52.674240,531.433350 65.954231,529.610657 79.266449,528.066467 
	C89.196243,526.914612 99.173019,526.161438 109.096306,524.961365 
	C121.415871,523.471436 133.687561,521.585693 146.006836,520.093079 
	C155.930298,518.890686 165.908295,518.141357 175.835266,516.964600 
	C185.561478,515.811584 195.246017,514.311035 204.963776,513.080994 
	C211.301788,512.278687 217.676605,511.768921 224.016785,510.981903 
	C234.064514,509.734650 244.106552,508.432800 254.133499,507.029175 
	C265.599579,505.424042 277.169891,504.266602 288.476379,501.879486 
	C312.748047,496.755035 337.182800,492.019104 360.984985,485.160431 
	C386.139648,477.912109 411.104492,469.517853 435.300415,459.555389 
	C464.196472,447.657745 491.743561,432.754272 516.327332,413.086273 
	C525.809937,405.499817 535.442444,397.937042 543.926392,389.302124 
	C558.730774,374.234314 571.184509,357.267914 581.717957,338.852570 
	C591.899780,321.052032 599.082520,302.154449 602.813782,282.122406 
	C607.924500,254.683319 604.315491,228.174881 592.414490,202.776718 
	C584.950012,186.846573 574.846741,172.804031 562.154358,160.850861 
	C546.402466,146.016327 528.543274,134.247131 508.494781,125.627281 
	C492.142395,118.596588 475.282593,113.482338 457.922150,110.234314 
	C447.163879,108.221512 436.085297,107.669975 425.117371,107.104118 
	C415.466370,106.606201 405.730865,106.458023 396.102692,107.141563 
	C384.869690,107.939034 373.697235,109.698868 362.534332,111.291969 
	C359.957458,111.659721 358.465454,113.316978 357.871033,116.480301 
	C353.852203,137.867310 349.416077,159.175461 345.217896,180.529358 
	C341.738068,198.229614 338.452637,215.968048 334.984436,233.670624 
	C330.830872,254.871475 326.545166,276.046356 322.372589,297.243530 
	C319.202820,313.346130 316.139557,329.469696 312.993439,345.576996 
	C310.252777,359.608459 307.478088,373.633331 304.690247,387.655518 
	C301.142853,405.498291 297.513123,423.324860 294.023438,441.178864 
	C291.903259,452.026031 290.052521,462.925842 287.940247,473.774628 
	C286.786163,479.702240 280.710907,482.694092 274.084167,480.548492 
	C261.214691,476.381531 252.194550,467.594940 248.815125,454.821075 
	C247.172043,448.610474 249.069687,441.217865 250.310059,434.535919 
	C253.955490,414.897430 258.039917,395.339813 262.016785,375.763611 
	C266.574951,353.325775 271.271576,330.915924 275.778198,308.467804 
	C279.615936,289.351257 283.189545,270.181671 287.027283,251.065094 
	C290.798248,232.281097 294.803436,213.544205 298.615509,194.768311 
	C302.138641,177.415665 305.569336,160.044067 308.986938,142.670227 
	C310.743622,133.739639 312.366699,124.782852 314.081635,115.843941 
	C315.042603,110.835129 318.139221,107.975075 323.107971,107.034821 
	C337.159668,104.375793 351.167969,101.455650 365.273987,99.126884 
	C374.306030,97.635788 383.458160,96.653587 392.596497,96.070389 
	C412.031464,94.830093 431.517639,92.889305 450.935516,93.328209 
	C468.534393,93.725998 486.086823,96.765495 503.629395,98.890785 
	C519.506958,100.814339 534.697815,105.561378 549.550903,111.280556 
	C567.241089,118.092178 583.665283,127.172173 598.618469,138.990067 
	C612.931274,150.301910 625.358154,163.163925 635.261780,178.550659 
	C645.972290,195.191101 653.608582,213.046661 655.859924,232.701538 
	C657.415405,246.282364 658.694641,260.156860 657.623169,273.704468 
	C656.504028,287.854584 653.022400,301.923981 649.487854,315.751160 
	C644.655762,334.654510 637.248413,352.696991 627.973938,369.883911 
	C618.900269,386.698853 608.224548,402.400085 595.702942,416.938446 
	C575.016907,440.956268 550.588196,460.389801 523.606567,476.628754 
	C501.029755,490.216644 477.155334,501.393463 452.182526,509.788910 
	C430.714508,517.006165 408.987946,523.612854 387.055542,529.241943 
	C368.207306,534.079468 348.951538,537.397705 329.792206,540.933472 
	C313.458160,543.947815 297.039154,546.557678 280.593048,548.890320 
	C268.277740,550.637024 255.844406,551.533447 243.491043,553.034119 
	C228.247864,554.885986 213.045212,557.071533 197.801743,558.920715 
	C187.878845,560.124512 177.896545,560.838135 167.973129,562.038147 
	C155.653641,563.527954 143.369766,565.310669 131.065414,566.928162 
	C127.815514,567.355347 124.546928,567.640381 120.828506,567.994751 
z"/>
<path fill="#0F62AC" opacity="1.000000" stroke="none" 
	d="
M185.402435,499.117065 
	C182.205154,504.108215 175.071991,505.969421 170.285675,502.596436 
	C165.455460,499.192474 160.975189,495.215607 156.699509,491.116455 
	C146.577087,481.411865 144.655411,469.996552 148.040558,456.373718 
	C152.813766,437.164886 156.104797,417.587036 159.998840,398.160767 
	C163.798080,379.207367 167.534363,360.241302 171.343521,341.289917 
	C174.863586,323.776855 178.488815,306.284851 181.984985,288.767059 
	C185.800613,269.648712 189.484451,250.504059 193.293915,231.384430 
	C196.816162,213.706375 200.213074,195.998886 204.082809,178.396179 
	C206.370758,167.988785 208.428802,157.323181 212.515091,147.581070 
	C216.124222,138.976547 223.093002,132.798218 232.873932,129.752106 
	C244.201599,126.224274 254.474060,136.903595 253.832581,146.650574 
	C253.127090,157.370209 251.511169,168.074905 249.594193,178.659760 
	C246.352829,196.557404 242.539963,214.351181 239.009354,232.196930 
	C235.225616,251.322098 231.527496,270.464233 227.723633,289.585358 
	C223.857941,309.017395 219.894485,328.429932 216.000381,347.856323 
	C212.201157,366.809540 208.446060,385.771606 204.652084,404.725891 
	C201.113861,422.402466 197.557953,440.075500 193.994827,457.747070 
	C191.233963,471.439880 188.449997,485.128021 185.402435,499.117065 
z"/>
</svg>